<svg xmlns="http://www.w3.org/2000/svg" viewBox="0 0 32 32" fill="none">
  <path d="M6 3C4.89543 3 4 3.89543 4 5V27C4 28.1046 4.89543 29 6 29H26C27.1046 29 28 28.1046 28 27V9L22 3H6Z" fill="#3B82F6"/>
  <path d="M22 3V9H28" fill="#2563EB"/>
  <path d="M16 11C13.2386 11 11 13.2386 11 16C11 18.7614 13.2386 21 16 21C18.7614 21 21 18.7614 21 16C21 13.2386 18.7614 11 16 11ZM16 18C14.8954 18 14 17.1046 14 16C14 14.8954 14.8954 14 16 14C17.1046 14 18 14.8954 18 16C18 17.1046 17.1046 18 16 18Z" fill="white"/>
  <path fill-rule="evenodd" clip-rule="evenodd" d="M16 9C15.4477 9 15 9.44772 15 10V11.05C14.3668 11.2011 13.78 11.4729 13.2559 11.8398L12.5135 11.0975C12.1229 10.7069 11.4898 10.7069 11.0992 11.0975L10.3921 11.8046C10.0016 12.1951 10.0016 12.8283 10.3921 13.2188L11.1345 13.9612C10.7676 14.4853 10.4958 15.0721 10.3447 15.7053H9.29289C8.74061 15.7053 8.29289 16.153 8.29289 16.7053V17.7053C8.29289 18.2576 8.74061 18.7053 9.29289 18.7053H10.3447C10.4958 19.3385 10.7676 19.9253 11.1345 20.4494L10.3921 21.1918C10.0016 21.5823 10.0016 22.2155 10.3921 22.606L11.0992 23.3131C11.4898 23.7036 12.1229 23.7036 12.5135 23.3131L13.2559 22.5708C13.78 22.9376 14.3668 23.2095 15 23.3606V24.4106C15 24.9629 15.4477 25.4106 16 25.4106H17C17.5523 25.4106 18 24.9629 18 24.4106V23.3606C18.6332 23.2095 19.22 22.9376 19.7441 22.5708L20.4865 23.3131C20.8771 23.7036 21.5102 23.7036 21.9008 23.3131L22.6079 22.606C22.9984 22.2155 22.9984 21.5823 22.6079 21.1918L21.8655 20.4494C22.2324 19.9253 22.5042 19.3385 22.6553 18.7053H23.7071C24.2594 18.7053 24.7071 18.2576 24.7071 17.7053V16.7053C24.7071 16.153 24.2594 15.7053 23.7071 15.7053H22.6553C22.5042 15.0721 22.2324 14.4853 21.8655 13.9612L22.6079 13.2188C22.9984 12.8283 22.9984 12.1951 22.6079 11.8046L21.9008 11.0975C21.5102 10.7069 20.8771 10.7069 20.4865 11.0975L19.7441 11.8398C19.22 11.4729 18.6332 11.2011 18 11.05V10C18 9.44772 17.5523 9 17 9H16ZM16.5 19.5C18.433 19.5 20 17.933 20 16C20 14.067 19.7071 12.5 16.5 12.5C14.567 12.5 13 14.067 13 16C13 17.933 14.567 19.5 16.5 19.5Z" fill="white" fill-opacity="0.9"/>
</svg>
